<svg id="Gradient" height="512" viewBox="0 0 512 512" width="512" xmlns="http://www.w3.org/2000/svg" xmlns:xlink="http://www.w3.org/1999/xlink"><linearGradient id="linear-gradient" gradientUnits="userSpaceOnUse" x1="256" x2="256" y1="496" y2="16"><stop offset="0" stop-color="#12c0e7"/><stop offset=".5" stop-color="#c271eb"/><stop offset="1" stop-color="#f44f5a"/></linearGradient><path d="m362.906 70.4a168.021 168.021 0 0 0 -213.809 0 8 8 0 1 1 -10.188-12.335 184.019 184.019 0 0 1 234.185 0 8 8 0 0 1 -10.188 12.335zm-34.906 25.6a8 8 0 0 0 4.513-14.611c-24.374-16.61-50.829-25.389-76.513-25.389-27.719 0-52.8 8.343-76.67 25.5a8 8 0 0 0 9.34 12.992c21.351-15.344 42.746-22.492 67.33-22.492 28.367 0 52.361 12.3 67.494 22.61a7.956 7.956 0 0 0 4.506 1.39zm-72.01 0a87.26 87.26 0 0 0 -52.813 17.6 8 8 0 0 0 9.612 12.792 72.024 72.024 0 0 1 86.405 0 8 8 0 1 0 9.612-12.791 87.263 87.263 0 0 0 -52.816-17.601zm-135.99 185.39c0-75.5 60.794-137.131 135.52-137.389h.48a136 136 0 0 1 136 135.999v192a24.028 24.028 0 0 1 -24 24h-224a24.028 24.028 0 0 1 -24-24zm16 190.61a8.009 8.009 0 0 0 8 8h224a8.009 8.009 0 0 0 8-8v-192a120 120 0 0 0 -120-120h-.427c-65.932.229-119.573 54.684-119.573 121.39zm32-200a88 88 0 1 1 88 88 88.1 88.1 0 0 1 -88-88zm16 0a72 72 0 1 0 72-72 72.081 72.081 0 0 0 -72 72zm16 0a56 56 0 1 1 56 56 56.063 56.063 0 0 1 -56-56zm16 0a40 40 0 1 0 40-40 40.045 40.045 0 0 0 -40 40zm-64 144a40.045 40.045 0 0 1 40-40h128a40 40 0 0 1 0 80h-128a40.045 40.045 0 0 1 -40-40zm168-24h-56v48h56a24 24 0 0 0 0-48zm-152 24a24.028 24.028 0 0 0 24 24h56v-48h-56a24.028 24.028 0 0 0 -24 24z" fill="url(#linear-gradient)"/></svg>